<?xml version="1.0" encoding="UTF-8" standalone="no"?>
<!DOCTYPE svg PUBLIC "-//W3C//DTD SVG 1.1//EN" "http://www.w3.org/Graphics/SVG/1.1/DTD/svg11.dtd">
<svg width="100%" height="100%" viewBox="0 0 1280 720" version="1.1" xmlns="http://www.w3.org/2000/svg" xmlns:xlink="http://www.w3.org/1999/xlink" xml:space="preserve" xmlns:serif="http://www.serif.com/" style="fill-rule:evenodd;clip-rule:evenodd;stroke-linejoin:round;stroke-miterlimit:1.41421;">
    <g transform="matrix(1.26384,-8.95531e-32,2.40249e-31,0.875381,-189.084,567.152)">
        <rect x="182" y="114" width="819" height="22"/>
    </g>
    <g transform="matrix(3.3585e-17,-0.774636,0.872512,7.47662e-17,1111.63,827.188)">
        <rect x="182" y="114" width="819" height="22"/>
    </g>
    <g transform="matrix(1.30148,0,0,1.16256,-14.9421,-66.225)">
        <text x="387px" y="380px" style="font-family:'SourceSansPro-Black', 'Source Sans Pro', sans-serif;font-weight:900;font-size:73.621px;">SALLE 1</text>
    </g>
    <g transform="matrix(1.43097,-1.01396e-31,2.40249e-31,0.875381,-202.116,-67.2754)">
        <rect x="182" y="114" width="819" height="22"/>
    </g>
    <g transform="matrix(3.3585e-17,-0.774636,0.872512,7.47662e-17,-58.5306,807.929)">
        <rect x="182" y="114" width="819" height="22"/>
    </g>
    <g transform="matrix(2.82836,0,0,1.87225,30.6116,4.43583)">
        <path d="M99,351L12,351L12,296L99,296L99,351ZM12.53,296.801L12.53,350.199L98.47,350.199L98.47,296.801L12.53,296.801Z" style="fill:rgb(114,114,114);"/>
    </g>
    <g transform="matrix(2.82836,0,0,1.87225,280.691,4.43583)">
        <path d="M99,351L12,351L12,296L99,296L99,351ZM12.53,296.801L12.53,350.199L98.47,350.199L98.47,296.801L12.53,296.801Z" style="fill:rgb(114,114,114);"/>
    </g>
    <g transform="matrix(2.82836,0,0,1.87225,530.149,4.43583)">
        <path d="M99,351L12,351L12,296L99,296L99,351ZM12.53,296.801L12.53,350.199L98.47,350.199L98.47,296.801L12.53,296.801Z" style="fill:rgb(114,114,114);"/>
    </g>
    <g transform="matrix(2.82836,0,0,1.87225,780.228,4.43583)">
        <path d="M99,351L12,351L12,296L99,296L99,351ZM12.53,296.801L12.53,350.199L98.47,350.199L98.47,296.801L12.53,296.801Z" style="fill:rgb(114,114,114);"/>
    </g>
    <g transform="matrix(2.82836,0,0,1.87225,179.054,-501.073)">
        <path d="M99,351L12,351L12,296L99,296L99,351ZM12.53,296.801L12.53,350.199L98.47,350.199L98.47,296.801L12.53,296.801Z" style="fill:rgb(114,114,114);"/>
    </g>
    <g transform="matrix(2.82836,0,0,1.87225,429.134,-501.073)">
        <path d="M99,351L12,351L12,296L99,296L99,351ZM12.53,296.801L12.53,350.199L98.47,350.199L98.47,296.801L12.53,296.801Z" style="fill:rgb(114,114,114);"/>
    </g>
    <g transform="matrix(2.82836,0,0,1.87225,678.592,-501.073)">
        <path d="M99,351L12,351L12,296L99,296L99,351ZM12.53,296.801L12.53,350.199L98.47,350.199L98.47,296.801L12.53,296.801Z" style="fill:rgb(114,114,114);"/>
    </g>
    <g transform="matrix(2.82836,0,0,1.87225,928.671,-501.073)">
        <path d="M99,351L12,351L12,296L99,296L99,351ZM12.53,296.801L12.53,350.199L98.47,350.199L98.47,296.801L12.53,296.801Z" style="fill:rgb(114,114,114);"/>
    </g>
    <g id="capteur1" transform="matrix(2.39941,0,0,2.4073,364.103,-546.381)">
        <rect x="336.641" y="314" width="16.359" height="26" style="fill:rgb(26,122,230);"/>
    </g>
    <g id="capteur2" transform="matrix(2.39941,0,0,2.4073,-747.609,-444.444)">
        <rect x="336.641" y="314" width="16.359" height="26" style="fill:rgb(26,122,230);"/>
    </g>
    <g id="laser" transform="matrix(8.25678,0,0,0.740707,-1703.55,434.363)">
        <rect x="336.641" y="314" width="16.359" height="26" style="fill:rgb(26,122,230);"/>
    </g>
    <g transform="matrix(0.978602,0,0,0.978602,-4.6513,-6.01041)">
        <text x="118px" y="337.533px" style="font-family:'Calibri-Bold', 'Calibri', sans-serif;font-weight:700;font-size:18px;">T<tspan x="125.356px 134.418px " y="337.533px 337.533px ">em</tspan>pér<tspan x="173.784px 182.503px 188.743px 198.402px 204.599px 213.66px " y="337.533px 337.533px 337.533px 337.533px 337.533px 337.533px ">ature </tspan>:</text>
    </g>
    <g transform="matrix(1,0,0,1,3,-12.9692)">
        <text id="capteur2-temperature" x="218px" y="337.27px" style="font-family:'Calibri', sans-serif;font-size:18px;">23 °C</text>
    </g>
    <g transform="matrix(0.978602,0,0,0.978602,-4.6513,18.5093)">
        <text x="118px" y="337.533px" style="font-family:'Calibri-Bold', 'Calibri', sans-serif;font-weight:700;font-size:18px;">Humidit<tspan x="178.179px 187.24px " y="337.533px 337.533px ">é </tspan>:</text>
    </g>
    <g transform="matrix(1,0,0,1,-23.958,9.51969)">
        <text id="capteur2-humidite" x="218px" y="339.436px" style="font-family:'Calibri', sans-serif;font-size:18px;">20 %</text>
    </g>
    <g transform="matrix(0.978602,0,0,0.978602,-4.6513,43.029)">
        <text x="118px" y="337.533px" style="font-family:'Calibri-Bold', 'Calibri', sans-serif;font-weight:700;font-size:18px;">Fumée :</text>
    </g>
    <g transform="matrix(1,0,0,1,-42.1762,33.9041)">
        <text id="capteur2-fumee" x="218px" y="339.436px" style="font-family:'Calibri', sans-serif;font-size:18px;">non</text>
    </g>
    <g transform="matrix(0.978602,0,0,0.978602,897.14,-106.01)">
        <text x="118px" y="337.533px" style="font-family:'Calibri-Bold', 'Calibri', sans-serif;font-weight:700;font-size:18px;">T<tspan x="125.356px 134.418px " y="337.533px 337.533px ">em</tspan>pér<tspan x="173.784px 182.503px 188.743px 198.402px 204.599px 213.66px " y="337.533px 337.533px 337.533px 337.533px 337.533px 337.533px ">ature </tspan>:</text>
    </g>
    <g transform="matrix(1,0,0,1,904.791,-112.969)">
        <text id="capteur1-temperature" x="218px" y="337.27px" style="font-family:'Calibri', sans-serif;font-size:18px;">23 °C</text>
    </g>
    <g transform="matrix(0.978602,0,0,0.978602,897.14,-81.4907)">
        <text x="118px" y="337.533px" style="font-family:'Calibri-Bold', 'Calibri', sans-serif;font-weight:700;font-size:18px;">Humidit<tspan x="178.179px 187.24px " y="337.533px 337.533px ">é </tspan>:</text>
    </g>
    <g transform="matrix(1,0,0,1,877.833,-90.4803)">
        <text id="capteur1-humidite" x="218px" y="339.436px" style="font-family:'Calibri', sans-serif;font-size:18px;">20 %</text>
    </g>
    <g transform="matrix(0.978602,0,0,0.978602,897.14,-56.971)">
        <text x="118px" y="337.533px" style="font-family:'Calibri-Bold', 'Calibri', sans-serif;font-weight:700;font-size:18px;">Fumée :</text>
    </g>
    <g transform="matrix(1,0,0,1,859.615,-66.0959)">
        <text id="capteur1-fumee" x="218px" y="339.436px" style="font-family:'Calibri', sans-serif;font-size:18px;">non</text>
    </g>
    <g transform="matrix(1,0,0,1,-4,-3)">
        <text x="1091px" y="659.617px" style="font-family:'Calibri-Bold', 'Calibri', sans-serif;font-weight:700;font-size:18px;">Laser :</text>
    </g>
    <g transform="matrix(1,0,-0.0392157,1,22.3918,12.75)">
        <text id="laser-text" x="1144px" y="643.872px" style="font-family:'Calibri', sans-serif;font-size:18px;">non</text>
    </g>
</svg>
